<svg fill="#000000" xmlns="http://www.w3.org/2000/svg" viewBox="0 0 50 50" width="50px" height="50px"><path d="M34.299,7c0.473,0,0.969,0.294,1.207,0.719l9.303,16.504c0.254,0.457,0.254,1.097,0.006,1.543l-9.311,16.519C35.268,42.706,34.772,43,34.299,43H15.701c-0.473,0-0.969-0.294-1.207-0.719L5.191,25.777c-0.254-0.457-0.254-1.097-0.006-1.543l9.311-16.519C14.732,7.294,15.228,7,15.701,7H34.299 M34.299,5H15.701c-1.19,0-2.36,0.685-2.95,1.737L3.442,23.252c-0.59,1.063-0.59,2.432,0,3.495l9.309,16.515c0.59,1.053,1.76,1.737,2.95,1.737h18.598c1.19,0,2.36-0.685,2.95-1.737l9.309-16.515c0.59-1.063,0.59-2.432,0-3.495L37.249,6.737C36.659,5.685,35.489,5,34.299,5L34.299,5z"/><path d="M33.612,35h-3.051c-0.143,0-0.285-0.089-0.352-0.217l-5.161-9.585C25.019,25.148,25.01,25.089,25,25.04c-0.01,0.049-0.019,0.109-0.048,0.158l-5.18,9.585c-0.057,0.128-0.19,0.207-0.333,0.217h-3.051c-0.276,0-0.485-0.366-0.342-0.623L21.093,25l-5.047-9.397c-0.124-0.227,0.028-0.553,0.266-0.603h3.127c0.133,0,0.266,0.089,0.333,0.208l5.18,9.585c0.028,0.049,0.038,0.099,0.048,0.158c0.01-0.059,0.019-0.109,0.048-0.158l5.161-9.585C30.285,15.079,30.418,15,30.561,15h3.051c0.266,0,0.466,0.356,0.342,0.603L28.907,25l5.047,9.377C34.097,34.634,33.887,35,33.612,35z"/></svg>