<?xml version="1.0" standalone="no"?>
<svg
  width="600"
  height="600"
  viewBox="0 0 600 600"
  xmlns="http://www.w3.org/2000/svg"
>
  <g transform="translate(300,300)">
    <path d="M145.6,-182.4C180.3,-144.5,194,-90.6,208.4,-33.2C222.8,24.2,237.9,85.1,216.4,127.6C195,170,137.2,194,78.3,215.6C19.5,237.1,-40.4,256.2,-90.7,241.3C-141,226.4,-181.8,177.4,-210.1,123.6C-238.3,69.8,-254.1,11.1,-240.3,-38.1C-226.6,-87.4,-183.4,-127.2,-138.4,-163.3C-93.4,-199.3,-46.7,-231.7,4.4,-236.9C55.5,-242.1,111,-220.3,145.6,-182.4Z" fill="#0288d1" />
  </g>
</svg>
  