<?xml version="1.0" standalone="no"?>
<svg
  width="600"
  height="600"
  viewBox="0 0 600 600"
  xmlns="http://www.w3.org/2000/svg"
>
  <g transform="translate(300,300)">
    <path d="M79.8,-111.1C104.7,-74.2,127.2,-50.3,153.6,-10.8C180,28.7,210.4,83.9,200,128.4C189.7,172.9,138.6,206.7,83.2,225.5C27.8,244.3,-31.9,248.1,-81,227.9C-130.1,207.7,-168.5,163.6,-193,114.6C-217.4,65.7,-227.9,11.8,-210.5,-28.5C-193.2,-68.9,-148,-95.7,-108.3,-130C-68.6,-164.4,-34.3,-206.2,-3.4,-202.1C27.4,-198,54.9,-148,79.8,-111.1Z" fill="#0288d1" />
  </g>
</svg>
  