<?xml version="1.0" encoding="utf-8"?>
<svg xmlns="http://www.w3.org/2000/svg" xmlns:xlink="http://www.w3.org/1999/xlink" style="background: rgb(238, 238, 238); display: block; position: relative; --darkreader-inline-bgimage: initial; --darkreader-inline-bgcolor:#d1cdc6; shape-rendering: auto;" width="76" height="76" preserveAspectRatio="xMidYMid" viewBox="0 0 76 76" data-darkreader-inline-bgimage="" data-darkreader-inline-bgcolor=""><g transform="scale(0.30000000000000004)">


<defs><g id="id-0.3318030225249209"><!--Generator: Adobe Illustrator 21.0.0, SVG Export Plug-In . SVG Version: 6.00 Build 0)--><style type="text/css">.st4{fill:#333}.st5{fill:#77a4bd}.st6{fill:#a0c8d7}.st7{fill:#666}</style><style class="darkreader darkreader--sync" media="screen"></style><path class="st5" d="M35.7,57h-0.2l-2.1,2.6l-10,12.5c-2.1,2.7-5.2,6.2-4.3,9.5c1.7,6.1,7.6,6.1,11.8,6.1H50V57H35.7z" data-fill="c1" style="fill: rgb(107, 219, 247); --darkreader-inline-fill:#45c8e9;" data-darkreader-inline-fill=""></path><path class="st4" d="M30.8,87.7c-4.2,0-10.1,0-11.8-6.1c-0.9-3.3,2.2-6.8,4.3-9.5l10-12.5l2.1-2.6l0,0l5-6.3c0,0,0,0,0,0v0l1.6-2.1 l1-1.3v-8.5V27.7v-3.9v-4v-2.3l-2.2-0.2c-1.2-0.1-2.1-1.1-2.1-2.4c0-1.3,1.1-2.4,2.4-2.4H50v-5l-9.2,0c-0.9,0-1.7,0.3-2.2,0.4 c-2.8,1-4.9,3.8-4.9,7c0,3,1.8,5.6,4.4,6.7v0.5v7.2v16.5L29.3,57L16.7,72.8c-2.9,3.7-3.5,8.6-1.4,12.8c2,4.2,6.2,6.9,10.9,6.9H50 v-4.8H30.8z" data-fill="c2" style="fill: rgb(98, 99, 100); --darkreader-inline-fill:#555556;" data-darkreader-inline-fill=""></path><polygon class="st4" points="35.4,57 33.3,59.6 35.4,57 " data-fill="c2" style="fill: rgb(98, 99, 100); --darkreader-inline-fill:#555556;" data-darkreader-inline-fill=""></polygon><path class="st6" d="M64.3,57H50v30.7h19.2c4.2,0,10.7-0.7,11.8-6.1c0.7-3.4-2.2-6.8-4.3-9.5l-10-12.5L64.6,57H64.3z" data-fill="c3" style="fill: rgb(107, 219, 247); --darkreader-inline-fill:#45c8e9;" data-darkreader-inline-fill=""></path><path class="st7" d="M84.7,85.6c2-4.2,1.5-9.1-1.4-12.8L70.7,57l-8.8-11.1V29.3v-7v-0.6c2.6-1.1,4.4-3.8,4.4-6.8 c0-4.1-3.3-7.4-7.4-7.4h-4.4v0l-4.5,0v5h8.9c1.3,0,2.4,1.1,2.4,2.5c0,1.2-0.9,2.2-2.1,2.3l-2.2,0.2v2.3v4v3.9v19.6l1,1.3l1.6,2.1v0 c0,0,0,0,0,0c0,0,0,0,0,0l7.1,8.9l10,12.5c2.1,2.7,5,6.1,4.3,9.5c-1.1,5.3-7.6,6.1-11.8,6.1H50v4.8h23.9 C78.5,92.5,82.7,89.9,84.7,85.6z" data-fill="c4" style="fill: rgb(98, 99, 100); --darkreader-inline-fill:#555556;" data-darkreader-inline-fill=""></path><metadata xmlns:d="https://loading.io/stock/"><d:name>erlenemeyer flask</d:name><d:tags>test tube,experiment,laboratory,lab,science,chemistry,erlenemeyer flask,web application</d:tags><d:license>pro</d:license><d:slug>yh9taz</d:slug></metadata></g></defs>

<!-- Generator: Adobe Illustrator 21.0.0, SVG Export Plug-In . SVG Version: 6.00 Build 0)  -->














<g data-idx="0" data-dup="" dx="-128" dy="-128" style="transform-origin: 22.9879px 21.9995px; animation: 1s linear 0s infinite normal forwards running beat-cbbd219b-569e-4949-9e85-9839f9ee5f1e;"><g transform="translate(-128,-128)"><g transform=" translate(151,149.9995) scale(0.6222222222222222)"><g data-icon="" transform="scale(0.9)">  <use xlink:href="#id-0.3318030225249209" x="-50" y="-50"></use>
</g></g></g></g><g data-idx="0" data-dup="" dx="128" dy="-128" style="transform-origin: 278.988px 21.9995px; animation: 1s linear 0s infinite normal forwards running beat-cbbd219b-569e-4949-9e85-9839f9ee5f1e;"><g transform="translate(128,-128)"><g transform=" translate(151,149.9995) scale(0.6222222222222222)"><g data-icon="" transform="scale(0.9)">  <use xlink:href="#id-0.3318030225249209" x="-50" y="-50"></use>
</g></g></g></g><g data-idx="1" data-dup="" dx="-128" dy="-128" style="transform-origin: 103.292px -6.92167px; animation: 1s linear -0.044s infinite normal forwards running beat-cbbd219b-569e-4949-9e85-9839f9ee5f1e;"><g transform="translate(-128,-128)"><g transform="matrix(0.9628 0.2703 -0.2703 0.9628 41.3411 -58.0147) translate(231.293,121.08149999999999) scale(0.5214666666666667)"><g data-icon="" transform="scale(0.9)">  <use xlink:href="#id-0.3318030225249209" x="-50" y="-50"></use>
</g></g></g></g><g data-idx="1" data-dup="" dx="128" dy="-128" style="transform-origin: 359.292px -6.92167px; animation: 1s linear -0.044s infinite normal forwards running beat-cbbd219b-569e-4949-9e85-9839f9ee5f1e;"><g transform="translate(128,-128)"><g transform="matrix(0.9628 0.2703 -0.2703 0.9628 41.3411 -58.0147) translate(231.293,121.08149999999999) scale(0.5214666666666667)"><g data-icon="" transform="scale(0.9)">  <use xlink:href="#id-0.3318030225249209" x="-50" y="-50"></use>
</g></g></g></g><g data-idx="2" data-dup="" dx="-128" dy="-128" style="transform-origin: 11.2835px -65.9262px; animation: 1s linear -0.088s infinite normal forwards running beat-cbbd219b-569e-4949-9e85-9839f9ee5f1e;"><g transform="translate(-128,-128)"><g transform="matrix(-0.0456 0.999 -0.999 -0.0456 207.6542 -74.2389) translate(139.293,62.081500000000005) scale(0.5214666666666667)"><g data-icon="" transform="scale(0.9)">  <use xlink:href="#id-0.3318030225249209" x="-50" y="-50"></use>
</g></g></g></g><g data-idx="2" data-dup="" dx="128" dy="-128" style="transform-origin: 267.283px -65.9262px; animation: 1s linear -0.088s infinite normal forwards running beat-cbbd219b-569e-4949-9e85-9839f9ee5f1e;"><g transform="translate(128,-128)"><g transform="matrix(-0.0456 0.999 -0.999 -0.0456 207.6542 -74.2389) translate(139.293,62.081500000000005) scale(0.5214666666666667)"><g data-icon="" transform="scale(0.9)">  <use xlink:href="#id-0.3318030225249209" x="-50" y="-50"></use>
</g></g></g></g><g data-idx="3" data-dup="" dx="-128" dy="-128" style="transform-origin: 76.0687px -99.7183px; animation: 1s linear -0.132s infinite normal forwards running beat-cbbd219b-569e-4949-9e85-9839f9ee5f1e;"><g transform="translate(-128,-128)"><g transform="matrix(0.2398 -0.9708 0.9708 0.2398 127.6881 219.61) translate(204.074,28.271) scale(0.3916444444444444)"><g data-icon="" transform="scale(0.9)">  <use xlink:href="#id-0.3318030225249209" x="-50" y="-50"></use>
</g></g></g></g><g data-idx="3" data-dup="" dx="128" dy="-128" style="transform-origin: 332.069px -99.7183px; animation: 1s linear -0.132s infinite normal forwards running beat-cbbd219b-569e-4949-9e85-9839f9ee5f1e;"><g transform="translate(128,-128)"><g transform="matrix(0.2398 -0.9708 0.9708 0.2398 127.6881 219.61) translate(204.074,28.271) scale(0.3916444444444444)"><g data-icon="" transform="scale(0.9)">  <use xlink:href="#id-0.3318030225249209" x="-50" y="-50"></use>
</g></g></g></g><g data-idx="4" data-dup="" dx="-128" dy="-128" style="transform-origin: 73.3025px 94.0922px; animation: 1s linear -0.176s infinite normal forwards running beat-cbbd219b-569e-4949-9e85-9839f9ee5f1e;"><g transform="translate(-128,-128)"><g transform="matrix(0.5905 -0.8071 0.8071 0.5905 -96.797 253.4085) translate(201.293,222.0815) scale(0.5214666666666667)"><g data-icon="" transform="scale(0.9)">  <use xlink:href="#id-0.3318030225249209" x="-50" y="-50"></use>
</g></g></g></g><g data-idx="4" data-dup="" dx="128" dy="-128" style="transform-origin: 329.303px 94.0922px; animation: 1s linear -0.176s infinite normal forwards running beat-cbbd219b-569e-4949-9e85-9839f9ee5f1e;"><g transform="translate(128,-128)"><g transform="matrix(0.5905 -0.8071 0.8071 0.5905 -96.797 253.4085) translate(201.293,222.0815) scale(0.5214666666666667)"><g data-icon="" transform="scale(0.9)">  <use xlink:href="#id-0.3318030225249209" x="-50" y="-50"></use>
</g></g></g></g><g data-idx="5" data-dup="" dx="-128" dy="-128" style="transform-origin: -19.5047px 79.1659px; animation: 1s linear -0.22s infinite normal forwards running beat-cbbd219b-569e-4949-9e85-9839f9ee5f1e;"><g transform="translate(-128,-128)"><g transform="matrix(0.8618 0.5073 -0.5073 0.8618 120.0863 -26.4095) translate(108.50649999999999,207.1645) scale(0.44135555555555556)"><g data-icon="" transform="scale(0.9)">  <use xlink:href="#id-0.3318030225249209" x="-50" y="-50"></use>
</g></g></g></g><g data-idx="5" data-dup="" dx="128" dy="-128" style="transform-origin: 236.495px 79.1659px; animation: 1s linear -0.22s infinite normal forwards running beat-cbbd219b-569e-4949-9e85-9839f9ee5f1e;"><g transform="translate(128,-128)"><g transform="matrix(0.8618 0.5073 -0.5073 0.8618 120.0863 -26.4095) translate(108.50649999999999,207.1645) scale(0.44135555555555556)"><g data-icon="" transform="scale(0.9)">  <use xlink:href="#id-0.3318030225249209" x="-50" y="-50"></use>
</g></g></g></g><g data-idx="6" data-dup="" dx="-128" dy="-128" style="transform-origin: -48.5517px -1.89115px; animation: 1s linear -0.264s infinite normal forwards running beat-cbbd219b-569e-4949-9e85-9839f9ee5f1e;"><g transform="translate(-128,-128)"><g transform="matrix(0.9981 0.0609 -0.0609 0.9981 7.8271 -4.6047) translate(79.461,126.11449999999999) scale(0.43675555555555556)"><g data-icon="" transform="scale(0.9)">  <use xlink:href="#id-0.3318030225249209" x="-50" y="-50"></use>
</g></g></g></g><g data-idx="6" data-dup="" dx="128" dy="-128" style="transform-origin: 207.448px -1.89115px; animation: 1s linear -0.264s infinite normal forwards running beat-cbbd219b-569e-4949-9e85-9839f9ee5f1e;"><g transform="translate(128,-128)"><g transform="matrix(0.9981 0.0609 -0.0609 0.9981 7.8271 -4.6047) translate(79.461,126.11449999999999) scale(0.43675555555555556)"><g data-icon="" transform="scale(0.9)">  <use xlink:href="#id-0.3318030225249209" x="-50" y="-50"></use>
</g></g></g></g><g data-idx="7" data-dup="" dx="-128" dy="-128" style="transform-origin: -67.5347px -95.8954px; animation: 1s linear -0.308s infinite normal forwards running beat-cbbd219b-569e-4949-9e85-9839f9ee5f1e;"><g transform="translate(-128,-128)"><g transform="matrix(-0.7024 0.7118 -0.7118 -0.7024 125.7862 11.6317) translate(60.461,32.1145) scale(0.43675555555555556)"><g data-icon="" transform="scale(0.9)">  <use xlink:href="#id-0.3318030225249209" x="-50" y="-50"></use>
</g></g></g></g><g data-idx="7" data-dup="" dx="128" dy="-128" style="transform-origin: 188.465px -95.8954px; animation: 1s linear -0.308s infinite normal forwards running beat-cbbd219b-569e-4949-9e85-9839f9ee5f1e;"><g transform="translate(128,-128)"><g transform="matrix(-0.7024 0.7118 -0.7118 -0.7024 125.7862 11.6317) translate(60.461,32.1145) scale(0.43675555555555556)"><g data-icon="" transform="scale(0.9)">  <use xlink:href="#id-0.3318030225249209" x="-50" y="-50"></use>
</g></g></g></g><g data-idx="8" data-dup="" dx="-128" dy="-128" style="transform-origin: -94.4011px -44.2754px; animation: 1s linear -0.352s infinite normal forwards running beat-cbbd219b-569e-4949-9e85-9839f9ee5f1e;"><g transform="translate(-128,-128)"><g transform="matrix(0.8596 0.511 -0.511 0.8596 47.5053 -5.4135) translate(33.602,83.7265) scale(0.3879111111111111)"><g data-icon="" transform="scale(0.9)">  <use xlink:href="#id-0.3318030225249209" x="-50" y="-50"></use>
</g></g></g></g><g data-idx="8" data-dup="" dx="128" dy="-128" style="transform-origin: 161.599px -44.2754px; animation: 1s linear -0.352s infinite normal forwards running beat-cbbd219b-569e-4949-9e85-9839f9ee5f1e;"><g transform="translate(128,-128)"><g transform="matrix(0.8596 0.511 -0.511 0.8596 47.5053 -5.4135) translate(33.602,83.7265) scale(0.3879111111111111)"><g data-icon="" transform="scale(0.9)">  <use xlink:href="#id-0.3318030225249209" x="-50" y="-50"></use>
</g></g></g></g><g data-idx="9" data-dup="" dx="-128" dy="-128" style="transform-origin: -83.8054px 76.6412px; animation: 1s linear -0.396s infinite normal forwards running beat-cbbd219b-569e-4949-9e85-9839f9ee5f1e;"><g transform="translate(-128,-128)"><g transform="matrix(0.5692 -0.8222 0.8222 0.5692 -149.2038 124.5031) translate(44.2025,204.6265) scale(0.5011777777777778)"><g data-icon="" transform="scale(0.9)">  <use xlink:href="#id-0.3318030225249209" x="-50" y="-50"></use>
</g></g></g></g><g data-idx="9" data-dup="" dx="128" dy="-128" style="transform-origin: 172.195px 76.6412px; animation: 1s linear -0.396s infinite normal forwards running beat-cbbd219b-569e-4949-9e85-9839f9ee5f1e;"><g transform="translate(128,-128)"><g transform="matrix(0.5692 -0.8222 0.8222 0.5692 -149.2038 124.5031) translate(44.2025,204.6265) scale(0.5011777777777778)"><g data-icon="" transform="scale(0.9)">  <use xlink:href="#id-0.3318030225249209" x="-50" y="-50"></use>
</g></g></g></g><g data-idx="0" data-dup="" dx="-128" dy="128" style="transform-origin: 22.9879px 277.999px; animation: 1s linear 0s infinite normal forwards running beat-cbbd219b-569e-4949-9e85-9839f9ee5f1e;"><g transform="translate(-128,128)"><g transform=" translate(151,149.9995) scale(0.6222222222222222)"><g data-icon="" transform="scale(0.9)">  <use xlink:href="#id-0.3318030225249209" x="-50" y="-50"></use>
</g></g></g></g><g data-idx="0" data-dup="" dx="128" dy="128" style="transform-origin: 278.988px 277.999px; animation: 1s linear 0s infinite normal forwards running beat-cbbd219b-569e-4949-9e85-9839f9ee5f1e;"><g transform="translate(128,128)"><g transform=" translate(151,149.9995) scale(0.6222222222222222)"><g data-icon="" transform="scale(0.9)">  <use xlink:href="#id-0.3318030225249209" x="-50" y="-50"></use>
</g></g></g></g><g data-idx="1" data-dup="" dx="-128" dy="128" style="transform-origin: 103.292px 249.078px; animation: 1s linear -0.044s infinite normal forwards running beat-cbbd219b-569e-4949-9e85-9839f9ee5f1e;"><g transform="translate(-128,128)"><g transform="matrix(0.9628 0.2703 -0.2703 0.9628 41.3411 -58.0147) translate(231.293,121.08149999999999) scale(0.5214666666666667)"><g data-icon="" transform="scale(0.9)">  <use xlink:href="#id-0.3318030225249209" x="-50" y="-50"></use>
</g></g></g></g><g data-idx="1" data-dup="" dx="128" dy="128" style="transform-origin: 359.292px 249.078px; animation: 1s linear -0.044s infinite normal forwards running beat-cbbd219b-569e-4949-9e85-9839f9ee5f1e;"><g transform="translate(128,128)"><g transform="matrix(0.9628 0.2703 -0.2703 0.9628 41.3411 -58.0147) translate(231.293,121.08149999999999) scale(0.5214666666666667)"><g data-icon="" transform="scale(0.9)">  <use xlink:href="#id-0.3318030225249209" x="-50" y="-50"></use>
</g></g></g></g><g data-idx="2" data-dup="" dx="-128" dy="128" style="transform-origin: 11.2835px 190.074px; animation: 1s linear -0.088s infinite normal forwards running beat-cbbd219b-569e-4949-9e85-9839f9ee5f1e;"><g transform="translate(-128,128)"><g transform="matrix(-0.0456 0.999 -0.999 -0.0456 207.6542 -74.2389) translate(139.293,62.081500000000005) scale(0.5214666666666667)"><g data-icon="" transform="scale(0.9)">  <use xlink:href="#id-0.3318030225249209" x="-50" y="-50"></use>
</g></g></g></g><g data-idx="2" data-dup="" dx="128" dy="128" style="transform-origin: 267.283px 190.074px; animation: 1s linear -0.088s infinite normal forwards running beat-cbbd219b-569e-4949-9e85-9839f9ee5f1e;"><g transform="translate(128,128)"><g transform="matrix(-0.0456 0.999 -0.999 -0.0456 207.6542 -74.2389) translate(139.293,62.081500000000005) scale(0.5214666666666667)"><g data-icon="" transform="scale(0.9)">  <use xlink:href="#id-0.3318030225249209" x="-50" y="-50"></use>
</g></g></g></g><g data-idx="3" data-dup="" dx="-128" dy="128" style="transform-origin: 76.0687px 156.282px; animation: 1s linear -0.132s infinite normal forwards running beat-cbbd219b-569e-4949-9e85-9839f9ee5f1e;"><g transform="translate(-128,128)"><g transform="matrix(0.2398 -0.9708 0.9708 0.2398 127.6881 219.61) translate(204.074,28.271) scale(0.3916444444444444)"><g data-icon="" transform="scale(0.9)">  <use xlink:href="#id-0.3318030225249209" x="-50" y="-50"></use>
</g></g></g></g><g data-idx="3" data-dup="" dx="128" dy="128" style="transform-origin: 332.069px 156.282px; animation: 1s linear -0.132s infinite normal forwards running beat-cbbd219b-569e-4949-9e85-9839f9ee5f1e;"><g transform="translate(128,128)"><g transform="matrix(0.2398 -0.9708 0.9708 0.2398 127.6881 219.61) translate(204.074,28.271) scale(0.3916444444444444)"><g data-icon="" transform="scale(0.9)">  <use xlink:href="#id-0.3318030225249209" x="-50" y="-50"></use>
</g></g></g></g><g data-idx="4" data-dup="" dx="-128" dy="128" style="transform-origin: 73.3025px 350.092px; animation: 1s linear -0.176s infinite normal forwards running beat-cbbd219b-569e-4949-9e85-9839f9ee5f1e;"><g transform="translate(-128,128)"><g transform="matrix(0.5905 -0.8071 0.8071 0.5905 -96.797 253.4085) translate(201.293,222.0815) scale(0.5214666666666667)"><g data-icon="" transform="scale(0.9)">  <use xlink:href="#id-0.3318030225249209" x="-50" y="-50"></use>
</g></g></g></g><g data-idx="4" data-dup="" dx="128" dy="128" style="transform-origin: 329.303px 350.092px; animation: 1s linear -0.176s infinite normal forwards running beat-cbbd219b-569e-4949-9e85-9839f9ee5f1e;"><g transform="translate(128,128)"><g transform="matrix(0.5905 -0.8071 0.8071 0.5905 -96.797 253.4085) translate(201.293,222.0815) scale(0.5214666666666667)"><g data-icon="" transform="scale(0.9)">  <use xlink:href="#id-0.3318030225249209" x="-50" y="-50"></use>
</g></g></g></g><g data-idx="5" data-dup="" dx="-128" dy="128" style="transform-origin: -19.5047px 335.166px; animation: 1s linear -0.22s infinite normal forwards running beat-cbbd219b-569e-4949-9e85-9839f9ee5f1e;"><g transform="translate(-128,128)"><g transform="matrix(0.8618 0.5073 -0.5073 0.8618 120.0863 -26.4095) translate(108.50649999999999,207.1645) scale(0.44135555555555556)"><g data-icon="" transform="scale(0.9)">  <use xlink:href="#id-0.3318030225249209" x="-50" y="-50"></use>
</g></g></g></g><g data-idx="5" data-dup="" dx="128" dy="128" style="transform-origin: 236.495px 335.166px; animation: 1s linear -0.22s infinite normal forwards running beat-cbbd219b-569e-4949-9e85-9839f9ee5f1e;"><g transform="translate(128,128)"><g transform="matrix(0.8618 0.5073 -0.5073 0.8618 120.0863 -26.4095) translate(108.50649999999999,207.1645) scale(0.44135555555555556)"><g data-icon="" transform="scale(0.9)">  <use xlink:href="#id-0.3318030225249209" x="-50" y="-50"></use>
</g></g></g></g><g data-idx="6" data-dup="" dx="-128" dy="128" style="transform-origin: -48.5517px 254.109px; animation: 1s linear -0.264s infinite normal forwards running beat-cbbd219b-569e-4949-9e85-9839f9ee5f1e;"><g transform="translate(-128,128)"><g transform="matrix(0.9981 0.0609 -0.0609 0.9981 7.8271 -4.6047) translate(79.461,126.11449999999999) scale(0.43675555555555556)"><g data-icon="" transform="scale(0.9)">  <use xlink:href="#id-0.3318030225249209" x="-50" y="-50"></use>
</g></g></g></g><g data-idx="6" data-dup="" dx="128" dy="128" style="transform-origin: 207.448px 254.109px; animation: 1s linear -0.264s infinite normal forwards running beat-cbbd219b-569e-4949-9e85-9839f9ee5f1e;"><g transform="translate(128,128)"><g transform="matrix(0.9981 0.0609 -0.0609 0.9981 7.8271 -4.6047) translate(79.461,126.11449999999999) scale(0.43675555555555556)"><g data-icon="" transform="scale(0.9)">  <use xlink:href="#id-0.3318030225249209" x="-50" y="-50"></use>
</g></g></g></g><g data-idx="7" data-dup="" dx="-128" dy="128" style="transform-origin: -67.5347px 160.105px; animation: 1s linear -0.308s infinite normal forwards running beat-cbbd219b-569e-4949-9e85-9839f9ee5f1e;"><g transform="translate(-128,128)"><g transform="matrix(-0.7024 0.7118 -0.7118 -0.7024 125.7862 11.6317) translate(60.461,32.1145) scale(0.43675555555555556)"><g data-icon="" transform="scale(0.9)">  <use xlink:href="#id-0.3318030225249209" x="-50" y="-50"></use>
</g></g></g></g><g data-idx="7" data-dup="" dx="128" dy="128" style="transform-origin: 188.465px 160.105px; animation: 1s linear -0.308s infinite normal forwards running beat-cbbd219b-569e-4949-9e85-9839f9ee5f1e;"><g transform="translate(128,128)"><g transform="matrix(-0.7024 0.7118 -0.7118 -0.7024 125.7862 11.6317) translate(60.461,32.1145) scale(0.43675555555555556)"><g data-icon="" transform="scale(0.9)">  <use xlink:href="#id-0.3318030225249209" x="-50" y="-50"></use>
</g></g></g></g><g data-idx="8" data-dup="" dx="-128" dy="128" style="transform-origin: -94.4011px 211.725px; animation: 1s linear -0.352s infinite normal forwards running beat-cbbd219b-569e-4949-9e85-9839f9ee5f1e;"><g transform="translate(-128,128)"><g transform="matrix(0.8596 0.511 -0.511 0.8596 47.5053 -5.4135) translate(33.602,83.7265) scale(0.3879111111111111)"><g data-icon="" transform="scale(0.9)">  <use xlink:href="#id-0.3318030225249209" x="-50" y="-50"></use>
</g></g></g></g><g data-idx="8" data-dup="" dx="128" dy="128" style="transform-origin: 161.599px 211.725px; animation: 1s linear -0.352s infinite normal forwards running beat-cbbd219b-569e-4949-9e85-9839f9ee5f1e;"><g transform="translate(128,128)"><g transform="matrix(0.8596 0.511 -0.511 0.8596 47.5053 -5.4135) translate(33.602,83.7265) scale(0.3879111111111111)"><g data-icon="" transform="scale(0.9)">  <use xlink:href="#id-0.3318030225249209" x="-50" y="-50"></use>
</g></g></g></g><g data-idx="9" data-dup="" dx="-128" dy="128" style="transform-origin: -83.8054px 332.641px; animation: 1s linear -0.396s infinite normal forwards running beat-cbbd219b-569e-4949-9e85-9839f9ee5f1e;"><g transform="translate(-128,128)"><g transform="matrix(0.5692 -0.8222 0.8222 0.5692 -149.2038 124.5031) translate(44.2025,204.6265) scale(0.5011777777777778)"><g data-icon="" transform="scale(0.9)">  <use xlink:href="#id-0.3318030225249209" x="-50" y="-50"></use>
</g></g></g></g><g data-idx="9" data-dup="" dx="128" dy="128" style="transform-origin: 172.195px 332.641px; animation: 1s linear -0.396s infinite normal forwards running beat-cbbd219b-569e-4949-9e85-9839f9ee5f1e;"><g transform="translate(128,128)"><g transform="matrix(0.5692 -0.8222 0.8222 0.5692 -149.2038 124.5031) translate(44.2025,204.6265) scale(0.5011777777777778)"><g data-icon="" transform="scale(0.9)">  <use xlink:href="#id-0.3318030225249209" x="-50" y="-50"></use>
</g></g></g></g></g><style id="beat-cbbd219b-569e-4949-9e85-9839f9ee5f1e" data-anikit="">@keyframes beat-cbbd219b-569e-4949-9e85-9839f9ee5f1e
{
  0% {
    animation-timing-function: cubic-bezier(0.1028,0.2484,0.1372,0.849);
    transform: scale(1);
  }
  34% {
    animation-timing-function: cubic-bezier(0.7116,0.2095,0.8159,0.6876);
    transform: scale(1.2);
  }
  68% {
    animation-timing-function: cubic-bezier(0.1475,0.2888,0.294,0.883);
    transform: scale(1.0268);
  }
  84% {
    animation-timing-function: cubic-bezier(0.8176,0.2193,0.867,0.6889);
    transform: scale(1.0932);
  }
  100% {
    transform: scale(1);
  }
}</style></svg>